<svg xmlns="http://www.w3.org/2000/svg" xmlns:xlink="http://www.w3.org/1999/xlink" width="500" zoomAndPan="magnify" viewBox="0 0 375 374.999991" height="500" preserveAspectRatio="xMidYMid meet" version="1.0"><defs><g/><clipPath id="id1"><path d="M 112.5 91.875 L 262.5 91.875 L 262.5 179 L 112.5 179 Z M 112.5 91.875 " clip-rule="nonzero"/></clipPath><clipPath id="id2"><path d="M 151 201 L 224 201 L 224 208.875 L 151 208.875 Z M 151 201 " clip-rule="nonzero"/></clipPath><clipPath id="id3"><path d="M 121.726562 157 L 252.976562 157 L 252.976562 166.835938 L 121.726562 166.835938 Z M 121.726562 157 " clip-rule="nonzero"/></clipPath><clipPath id="id4"><path d="M 135 133.835938 L 186 133.835938 L 186 158 L 135 158 Z M 135 133.835938 " clip-rule="nonzero"/></clipPath><clipPath id="id5"><path d="M 188 133.835938 L 239 133.835938 L 239 158 L 188 158 Z M 188 133.835938 " clip-rule="nonzero"/></clipPath></defs><path fill="#62466b" d="M 120.523438 95.742188 C 119.378906 95.742188 118.34375 96.207031 117.59375 96.957031 C 116.84375 97.707031 116.378906 98.746094 116.378906 99.890625 L 116.378906 170 C 116.378906 171.144531 116.84375 172.183594 117.59375 172.933594 C 118.34375 173.683594 119.378906 174.148438 120.523438 174.148438 L 254.476562 174.148438 C 255.621094 174.148438 256.660156 173.683594 257.40625 172.933594 C 258.160156 172.183594 258.621094 171.144531 258.621094 170 L 258.621094 99.890625 C 258.621094 98.746094 258.160156 97.707031 257.40625 96.957031 C 256.660156 96.207031 255.621094 95.742188 254.476562 95.742188 Z M 117.890625 177.570312 C 118.566406 177.859375 119.308594 178.015625 120.089844 178.015625 L 120.523438 178.015625 C 119.601562 178.015625 118.714844 177.859375 117.890625 177.570312 Z M 257.101562 177.574219 C 256.277344 177.859375 255.398438 178.015625 254.476562 178.015625 L 254.910156 178.015625 C 255.6875 178.015625 256.425781 177.859375 257.101562 177.574219 Z M 257.101562 177.574219 " fill-opacity="1" fill-rule="evenodd"/><g clip-path="url(#id1)"><path fill="#ffffff" d="M 262.484375 99.894531 C 262.484375 97.679688 261.585938 95.671875 260.136719 94.222656 C 258.6875 92.769531 256.691406 91.875 254.476562 91.875 L 120.523438 91.875 C 118.3125 91.875 116.3125 92.769531 114.863281 94.222656 C 113.414062 95.671875 112.515625 97.679688 112.515625 99.894531 L 112.515625 170 C 112.515625 172.210938 113.414062 174.21875 114.863281 175.667969 C 116.3125 177.117188 118.3125 178.015625 120.523438 178.015625 L 254.476562 178.015625 C 256.691406 178.015625 258.6875 177.117188 260.136719 175.667969 C 261.585938 174.21875 262.484375 172.210938 262.484375 170 Z M 258.621094 99.894531 L 258.621094 170 C 258.621094 171.144531 258.160156 172.183594 257.40625 172.933594 C 256.660156 173.683594 255.621094 174.148438 254.476562 174.148438 L 120.523438 174.148438 C 119.378906 174.148438 118.34375 173.683594 117.59375 172.933594 C 116.84375 172.183594 116.378906 171.144531 116.378906 170 L 116.378906 99.894531 C 116.378906 98.746094 116.84375 97.707031 117.59375 96.957031 C 118.34375 96.207031 119.378906 95.742188 120.523438 95.742188 L 254.476562 95.742188 C 255.621094 95.742188 256.660156 96.207031 257.40625 96.957031 C 258.160156 97.707031 258.621094 98.746094 258.621094 99.894531 Z M 258.621094 99.894531 " fill-opacity="1" fill-rule="evenodd"/></g><path fill="#ffffff" d="M 170.910156 178.015625 L 204.089844 178.015625 L 204.089844 201.628906 L 170.910156 201.628906 " fill-opacity="1" fill-rule="evenodd"/><g clip-path="url(#id2)"><path fill="#ffffff" d="M 223.035156 203.769531 C 223.035156 202.585938 222.078125 201.628906 220.898438 201.628906 C 210.429688 201.628906 164.570312 201.628906 154.097656 201.628906 C 152.921875 201.628906 151.964844 202.585938 151.964844 203.769531 C 151.964844 204.703125 151.964844 205.800781 151.964844 206.734375 C 151.964844 207.917969 152.921875 208.875 154.097656 208.875 C 164.570312 208.875 210.429688 208.875 220.898438 208.875 C 222.078125 208.875 223.035156 207.917969 223.035156 206.734375 C 223.035156 205.800781 223.035156 204.703125 223.035156 203.769531 Z M 223.035156 203.769531 " fill-opacity="1" fill-rule="evenodd"/></g><g clip-path="url(#id3)"><path fill="#ffffff" d="M 250.921875 166.835938 L 192.480469 166.835938 C 191.964844 166.835938 191.453125 166.628906 191.042969 166.21875 L 187.351562 162.609375 L 183.660156 166.21875 C 183.25 166.628906 182.738281 166.835938 182.226562 166.835938 L 123.785156 166.835938 C 122.65625 166.835938 121.734375 165.910156 121.734375 164.773438 C 121.734375 163.640625 122.65625 162.710938 123.785156 162.710938 L 181.40625 162.710938 L 185.917969 158.277344 C 186.738281 157.453125 187.96875 157.453125 188.789062 158.277344 L 193.300781 162.710938 L 250.921875 162.710938 C 252.046875 162.710938 252.972656 163.640625 252.972656 164.773438 C 252.972656 165.910156 252.046875 166.835938 250.921875 166.835938 Z M 250.921875 166.835938 " fill-opacity="1" fill-rule="nonzero"/></g><g clip-path="url(#id4)"><path fill="#ffffff" d="M 135.574219 137.859375 L 146.851562 133.835938 C 146.851562 133.835938 175.046875 134.351562 185.816406 151.058594 L 185.816406 157.144531 C 185.816406 157.144531 169.410156 137.859375 135.574219 137.859375 Z M 135.574219 137.859375 " fill-opacity="1" fill-rule="nonzero"/></g><path fill="#ffffff" d="M 133.011719 141.46875 L 139.164062 139.40625 C 139.164062 139.40625 167.871094 139.40625 184.277344 156.628906 C 184.277344 156.730469 162.746094 142.5 133.011719 141.46875 Z M 133.011719 141.46875 " fill-opacity="1" fill-rule="nonzero"/><path fill="#ffffff" d="M 129.9375 150.542969 L 133.011719 144.457031 C 133.011719 144.457031 165.820312 145.488281 183.25 156.628906 C 183.25 156.730469 142.238281 147.550781 129.9375 150.542969 Z M 129.9375 150.542969 " fill-opacity="1" fill-rule="nonzero"/><path fill="#ffffff" d="M 127.886719 155.699219 C 127.886719 155.699219 146.339844 149.613281 183.25 158.792969 C 183.25 158.792969 145.316406 154.769531 126.859375 158.792969 Z M 127.886719 155.699219 " fill-opacity="1" fill-rule="nonzero"/><g clip-path="url(#id5)"><path fill="#ffffff" d="M 238.617188 137.859375 L 227.339844 133.835938 C 227.339844 133.835938 199.144531 134.351562 188.378906 151.058594 L 188.378906 157.144531 C 188.378906 157.144531 204.78125 137.859375 238.617188 137.859375 Z M 238.617188 137.859375 " fill-opacity="1" fill-rule="nonzero"/></g><path fill="#ffffff" d="M 241.179688 141.46875 L 235.027344 139.40625 C 235.027344 139.40625 206.320312 139.40625 189.914062 156.628906 C 189.914062 156.730469 211.445312 142.5 241.179688 141.46875 Z M 241.179688 141.46875 " fill-opacity="1" fill-rule="nonzero"/><path fill="#ffffff" d="M 244.257812 150.542969 L 241.179688 144.457031 C 241.179688 144.457031 208.371094 145.488281 190.941406 156.628906 C 190.941406 156.730469 231.953125 147.550781 244.257812 150.542969 Z M 244.257812 150.542969 " fill-opacity="1" fill-rule="nonzero"/><path fill="#ffffff" d="M 246.308594 155.699219 C 246.308594 155.699219 227.851562 149.613281 190.941406 158.792969 C 190.941406 158.792969 228.878906 154.769531 247.332031 158.792969 Z M 246.308594 155.699219 " fill-opacity="1" fill-rule="nonzero"/><g fill="#ffffff" fill-opacity="1"><g transform="translate(33.339846, 249.377957)"><g><path d="M 13.640625 -28.15625 C 16.992188 -28.15625 19.675781 -27.34375 21.6875 -25.71875 C 23.695312 -24.101562 24.703125 -21.804688 24.703125 -18.828125 L 17.546875 -18.828125 L 17.546875 -19.109375 C 17.546875 -20.160156 17.222656 -21.023438 16.578125 -21.703125 C 15.929688 -22.390625 14.992188 -22.734375 13.765625 -22.734375 C 12.503906 -22.734375 11.515625 -22.296875 10.796875 -21.421875 C 10.085938 -20.546875 9.734375 -19.375 9.734375 -17.90625 L 9.734375 -15.578125 C 10.515625 -16.265625 11.441406 -16.78125 12.515625 -17.125 C 13.585938 -17.476562 14.609375 -17.65625 15.578125 -17.65625 C 17.421875 -17.65625 19.085938 -17.328125 20.578125 -16.671875 C 22.066406 -16.015625 23.238281 -15.050781 24.09375 -13.78125 C 24.957031 -12.507812 25.390625 -10.972656 25.390625 -9.171875 C 25.390625 -6.117188 24.335938 -3.742188 22.234375 -2.046875 C 20.128906 -0.359375 17.265625 0.484375 13.640625 0.484375 C 9.585938 0.484375 6.578125 -0.617188 4.609375 -2.828125 C 2.640625 -5.046875 1.65625 -8.488281 1.65625 -13.15625 C 1.65625 -18.4375 2.625 -22.253906 4.5625 -24.609375 C 6.507812 -26.972656 9.535156 -28.15625 13.640625 -28.15625 Z M 13.671875 -12.828125 C 12.410156 -12.828125 11.4375 -12.484375 10.75 -11.796875 C 10.070312 -11.117188 9.734375 -10.148438 9.734375 -8.890625 C 9.734375 -7.628906 10.066406 -6.65625 10.734375 -5.96875 C 11.410156 -5.289062 12.378906 -4.953125 13.640625 -4.953125 C 14.929688 -4.953125 15.914062 -5.28125 16.59375 -5.9375 C 17.28125 -6.59375 17.625 -7.550781 17.625 -8.8125 C 17.625 -10.070312 17.28125 -11.054688 16.59375 -11.765625 C 15.914062 -12.472656 14.941406 -12.828125 13.671875 -12.828125 Z M 13.671875 -12.828125 "/></g></g></g><g fill="#ffffff" fill-opacity="1"><g transform="translate(60.165802, 249.377957)"><g><path d="M 16.578125 -21.25 L 16.578125 -15.8125 L 12.0625 -15.8125 L 12.0625 -7.71875 C 12.0625 -6.757812 12.222656 -6.054688 12.546875 -5.609375 C 12.867188 -5.171875 13.460938 -4.953125 14.328125 -4.953125 L 16.578125 -4.953125 L 16.578125 -0.234375 C 15.929688 -0.0234375 15.097656 0.144531 14.078125 0.28125 C 13.054688 0.414062 12.171875 0.484375 11.421875 0.484375 C 9.066406 0.484375 7.25 0.0546875 5.96875 -0.796875 C 4.695312 -1.660156 4.0625 -3.125 4.0625 -5.1875 L 4.0625 -15.8125 L 1.09375 -15.8125 L 1.09375 -21.25 L 4.390625 -21.25 L 6.109375 -27.6875 L 12.0625 -27.6875 L 12.0625 -21.25 Z M 16.578125 -21.25 "/></g></g></g><g fill="#ffffff" fill-opacity="1"><g transform="translate(78.022967, 249.377957)"><g><path d="M 10.421875 -19.03125 C 11.273438 -19.882812 12.28125 -20.546875 13.4375 -21.015625 C 14.59375 -21.484375 15.800781 -21.71875 17.0625 -21.71875 C 19.53125 -21.71875 21.378906 -21.035156 22.609375 -19.671875 C 23.847656 -18.304688 24.46875 -16.335938 24.46875 -13.765625 L 24.46875 0 L 16.453125 0 L 16.453125 -12.796875 C 16.453125 -13.703125 16.21875 -14.429688 15.75 -14.984375 C 15.28125 -15.535156 14.617188 -15.8125 13.765625 -15.8125 C 12.765625 -15.8125 11.957031 -15.488281 11.34375 -14.84375 C 10.726562 -14.195312 10.421875 -13.40625 10.421875 -12.46875 L 10.421875 0 L 2.40625 0 L 2.40625 -29.171875 L 10.421875 -29.171875 Z M 10.421875 -19.03125 "/></g></g></g><g fill="#ffffff" fill-opacity="1"><g transform="translate(104.848924, 249.377957)"><g/></g></g><g fill="#ffffff" fill-opacity="1"><g transform="translate(118.241794, 249.377957)"><g><path d="M 14.609375 -28.15625 C 18.148438 -28.15625 21.054688 -27.4375 23.328125 -26 C 25.609375 -24.570312 26.78125 -22.453125 26.84375 -19.640625 L 26.84375 -19.15625 L 18.5 -19.15625 L 18.5 -19.3125 C 18.5 -20.113281 18.203125 -20.78125 17.609375 -21.3125 C 17.023438 -21.851562 16.128906 -22.125 14.921875 -22.125 C 13.742188 -22.125 12.835938 -21.945312 12.203125 -21.59375 C 11.578125 -21.25 11.265625 -20.820312 11.265625 -20.3125 C 11.265625 -19.59375 11.691406 -19.054688 12.546875 -18.703125 C 13.410156 -18.359375 14.796875 -18 16.703125 -17.625 C 18.921875 -17.164062 20.75 -16.6875 22.1875 -16.1875 C 23.625 -15.695312 24.878906 -14.882812 25.953125 -13.75 C 27.023438 -12.625 27.570312 -11.097656 27.59375 -9.171875 C 27.59375 -5.898438 26.488281 -3.472656 24.28125 -1.890625 C 22.070312 -0.304688 19.113281 0.484375 15.40625 0.484375 C 11.09375 0.484375 7.734375 -0.238281 5.328125 -1.6875 C 2.929688 -3.132812 1.734375 -5.695312 1.734375 -9.375 L 10.140625 -9.375 C 10.140625 -7.976562 10.5 -7.046875 11.21875 -6.578125 C 11.945312 -6.109375 13.078125 -5.875 14.609375 -5.875 C 15.734375 -5.875 16.660156 -5.992188 17.390625 -6.234375 C 18.128906 -6.472656 18.5 -6.96875 18.5 -7.71875 C 18.5 -8.394531 18.085938 -8.898438 17.265625 -9.234375 C 16.453125 -9.566406 15.125 -9.921875 13.28125 -10.296875 C 11.019531 -10.785156 9.148438 -11.289062 7.671875 -11.8125 C 6.203125 -12.332031 4.914062 -13.195312 3.8125 -14.40625 C 2.71875 -15.613281 2.171875 -17.25 2.171875 -19.3125 C 2.171875 -22.34375 3.34375 -24.570312 5.6875 -26 C 8.039062 -27.4375 11.015625 -28.15625 14.609375 -28.15625 Z M 14.609375 -28.15625 "/></g></g></g><g fill="#ffffff" fill-opacity="1"><g transform="translate(147.279791, 249.377957)"><g><path d="M 13.390625 -21.71875 C 17.285156 -21.71875 20.257812 -20.804688 22.3125 -18.984375 C 24.363281 -17.160156 25.390625 -14.375 25.390625 -10.625 L 25.390625 -9.25 L 9.453125 -9.25 C 9.453125 -7.71875 9.789062 -6.5625 10.46875 -5.78125 C 11.15625 -5.007812 12.238281 -4.625 13.71875 -4.625 C 15.0625 -4.625 16.046875 -4.90625 16.671875 -5.46875 C 17.304688 -6.03125 17.625 -6.78125 17.625 -7.71875 L 25.390625 -7.71875 C 25.390625 -5.144531 24.410156 -3.132812 22.453125 -1.6875 C 20.492188 -0.238281 17.632812 0.484375 13.875 0.484375 C 9.9375 0.484375 6.878906 -0.429688 4.703125 -2.265625 C 2.535156 -4.109375 1.453125 -6.894531 1.453125 -10.625 C 1.453125 -14.269531 2.507812 -17.03125 4.625 -18.90625 C 6.75 -20.78125 9.671875 -21.71875 13.390625 -21.71875 Z M 13.71875 -16.609375 C 11.195312 -16.609375 9.789062 -15.414062 9.5 -13.03125 L 17.296875 -13.03125 C 17.296875 -14.132812 16.976562 -15.003906 16.34375 -15.640625 C 15.71875 -16.285156 14.84375 -16.609375 13.71875 -16.609375 Z M 13.71875 -16.609375 "/></g></g></g><g fill="#ffffff" fill-opacity="1"><g transform="translate(174.105747, 249.377957)"><g><path d="M 30.625 -21.71875 C 33.03125 -21.71875 34.835938 -21.023438 36.046875 -19.640625 C 37.253906 -18.265625 37.859375 -16.304688 37.859375 -13.765625 L 37.859375 0 L 29.859375 0 L 29.859375 -12.796875 C 29.859375 -13.703125 29.632812 -14.429688 29.1875 -14.984375 C 28.75 -15.535156 28.125 -15.8125 27.3125 -15.8125 C 26.375 -15.8125 25.609375 -15.488281 25.015625 -14.84375 C 24.429688 -14.195312 24.140625 -13.40625 24.140625 -12.46875 L 24.140625 0 L 16.140625 0 L 16.140625 -12.796875 C 16.140625 -13.703125 15.914062 -14.429688 15.46875 -14.984375 C 15.03125 -15.535156 14.40625 -15.8125 13.59375 -15.8125 C 12.65625 -15.8125 11.890625 -15.488281 11.296875 -14.84375 C 10.710938 -14.195312 10.421875 -13.40625 10.421875 -12.46875 L 10.421875 0 L 2.40625 0 L 2.40625 -21.25 L 8.96875 -21.25 L 9.5 -18.0625 C 10.300781 -19.1875 11.363281 -20.078125 12.6875 -20.734375 C 14.019531 -21.390625 15.421875 -21.71875 16.890625 -21.71875 C 20.085938 -21.71875 22.234375 -20.5 23.328125 -18.0625 C 24.160156 -19.1875 25.226562 -20.078125 26.53125 -20.734375 C 27.832031 -21.390625 29.195312 -21.71875 30.625 -21.71875 Z M 30.625 -21.71875 "/></g></g></g><g fill="#ffffff" fill-opacity="1"><g transform="translate(214.324574, 249.377957)"><g/></g></g><g fill="#ffffff" fill-opacity="1"><g transform="translate(227.717457, 249.377957)"><g><path d="M 3.09375 8.484375 L 3.09375 -29.203125 L 8.09375 -29.203125 L 8.09375 8.484375 Z M 3.09375 8.484375 "/></g></g></g><g fill="#ffffff" fill-opacity="1"><g transform="translate(238.898288, 249.377957)"><g/></g></g><g fill="#ffffff" fill-opacity="1"><g transform="translate(252.291171, 249.377957)"><g><path d="M 2.984375 -27.6875 L 26.921875 -27.6875 L 26.921875 -21.046875 L 11.875 -21.046875 L 11.875 -17.21875 L 24.75 -17.21875 L 24.75 -10.859375 L 11.875 -10.859375 L 11.875 -6.640625 L 27.203125 -6.640625 L 27.203125 0 L 2.984375 0 Z M 2.984375 -27.6875 "/></g></g></g><g fill="#ffffff" fill-opacity="1"><g transform="translate(281.329178, 249.377957)"><g><path d="M 16.171875 -28.15625 C 20.273438 -28.15625 23.519531 -27.128906 25.90625 -25.078125 C 28.289062 -23.035156 29.484375 -20.109375 29.484375 -16.296875 L 21 -16.296875 C 21 -17.898438 20.578125 -19.171875 19.734375 -20.109375 C 18.890625 -21.054688 17.691406 -21.53125 16.140625 -21.53125 C 14.335938 -21.53125 13.015625 -20.960938 12.171875 -19.828125 C 11.328125 -18.703125 10.90625 -17.132812 10.90625 -15.125 L 10.90625 -12.546875 C 10.90625 -10.566406 11.328125 -9.003906 12.171875 -7.859375 C 13.015625 -6.722656 14.304688 -6.15625 16.046875 -6.15625 C 17.765625 -6.15625 19.066406 -6.597656 19.953125 -7.484375 C 20.835938 -8.367188 21.28125 -9.613281 21.28125 -11.21875 L 29.484375 -11.21875 C 29.484375 -7.4375 28.320312 -4.539062 26 -2.53125 C 23.6875 -0.519531 20.410156 0.484375 16.171875 0.484375 C 11.453125 0.484375 7.878906 -0.722656 5.453125 -3.140625 C 3.023438 -5.554688 1.8125 -9.125 1.8125 -13.84375 C 1.8125 -18.5625 3.023438 -22.125 5.453125 -24.53125 C 7.878906 -26.945312 11.453125 -28.15625 16.171875 -28.15625 Z M 16.171875 -28.15625 "/></g></g></g><g fill="#ffffff" fill-opacity="1"><g transform="translate(312.619429, 249.377957)"><g><path d="M 2.984375 -27.6875 L 26.921875 -27.6875 L 26.921875 -21.046875 L 11.875 -21.046875 L 11.875 -17.21875 L 24.75 -17.21875 L 24.75 -10.859375 L 11.875 -10.859375 L 11.875 -6.640625 L 27.203125 -6.640625 L 27.203125 0 L 2.984375 0 Z M 2.984375 -27.6875 "/></g></g></g><g fill="#ffffff" fill-opacity="1"><g transform="translate(167.215857, 279.430791)"><g><path d="M 1.09375 -10.671875 L 4.40625 -10.671875 C 5.675781 -10.671875 6.664062 -10.226562 7.375 -9.34375 C 8.082031 -8.457031 8.4375 -7.171875 8.4375 -5.484375 C 8.4375 -3.679688 8.082031 -2.316406 7.375 -1.390625 C 6.675781 -0.460938 5.6875 0 4.40625 0 L 1.09375 0 Z M 4.28125 -1.25 C 5.132812 -1.25 5.800781 -1.570312 6.28125 -2.21875 C 6.769531 -2.863281 7.015625 -3.820312 7.015625 -5.09375 L 7.015625 -5.875 C 7.015625 -7.039062 6.769531 -7.921875 6.28125 -8.515625 C 5.800781 -9.117188 5.132812 -9.421875 4.28125 -9.421875 L 2.453125 -9.421875 L 2.453125 -1.25 Z M 4.28125 -1.25 "/></g></g></g><g fill="#ffffff" fill-opacity="1"><g transform="translate(178.140671, 279.430791)"><g><path d="M 4.234375 0.1875 C 3.171875 0.1875 2.304688 -0.0703125 1.640625 -0.59375 C 0.972656 -1.113281 0.640625 -1.921875 0.640625 -3.015625 L 0.65625 -3.328125 L 2.0625 -3.328125 L 2.046875 -3 C 2.046875 -2.363281 2.238281 -1.882812 2.625 -1.5625 C 3.019531 -1.238281 3.535156 -1.078125 4.171875 -1.078125 C 4.878906 -1.078125 5.425781 -1.226562 5.8125 -1.53125 C 6.207031 -1.832031 6.40625 -2.269531 6.40625 -2.84375 C 6.40625 -3.226562 6.296875 -3.539062 6.078125 -3.78125 C 5.867188 -4.03125 5.601562 -4.226562 5.28125 -4.375 C 4.96875 -4.519531 4.539062 -4.675781 4 -4.84375 C 3.320312 -5.070312 2.773438 -5.289062 2.359375 -5.5 C 1.941406 -5.707031 1.585938 -6.007812 1.296875 -6.40625 C 1.003906 -6.8125 0.859375 -7.335938 0.859375 -7.984375 C 0.859375 -8.921875 1.171875 -9.632812 1.796875 -10.125 C 2.429688 -10.613281 3.25 -10.859375 4.25 -10.859375 C 5.238281 -10.859375 6.039062 -10.609375 6.65625 -10.109375 C 7.28125 -9.617188 7.59375 -8.863281 7.59375 -7.84375 L 7.59375 -7.671875 L 6.171875 -7.671875 L 6.171875 -7.890625 C 6.171875 -8.421875 5.988281 -8.835938 5.625 -9.140625 C 5.269531 -9.441406 4.820312 -9.59375 4.28125 -9.59375 C 3.6875 -9.59375 3.207031 -9.460938 2.84375 -9.203125 C 2.476562 -8.953125 2.296875 -8.582031 2.296875 -8.09375 C 2.296875 -7.738281 2.398438 -7.441406 2.609375 -7.203125 C 2.816406 -6.972656 3.078125 -6.785156 3.390625 -6.640625 C 3.703125 -6.503906 4.125 -6.347656 4.65625 -6.171875 C 5.34375 -5.941406 5.894531 -5.722656 6.3125 -5.515625 C 6.738281 -5.316406 7.097656 -5.019531 7.390625 -4.625 C 7.679688 -4.226562 7.828125 -3.710938 7.828125 -3.078125 C 7.828125 -1.941406 7.503906 -1.113281 6.859375 -0.59375 C 6.210938 -0.0703125 5.335938 0.1875 4.234375 0.1875 Z M 4.234375 0.1875 "/></g></g></g><g fill="#ffffff" fill-opacity="1"><g transform="translate(188.366228, 279.430791)"><g><path d="M 4.84375 0.1875 C 2.050781 0.1875 0.65625 -1.648438 0.65625 -5.328125 C 0.65625 -9.015625 2.050781 -10.859375 4.84375 -10.859375 C 5.976562 -10.859375 6.878906 -10.507812 7.546875 -9.8125 C 8.222656 -9.125 8.5625 -8.125 8.5625 -6.8125 L 7.171875 -6.8125 C 7.171875 -7.71875 6.960938 -8.40625 6.546875 -8.875 C 6.128906 -9.351562 5.5625 -9.59375 4.84375 -9.59375 C 3.914062 -9.59375 3.222656 -9.269531 2.765625 -8.625 C 2.304688 -7.988281 2.078125 -7.019531 2.078125 -5.71875 L 2.078125 -4.9375 C 2.078125 -3.644531 2.304688 -2.675781 2.765625 -2.03125 C 3.222656 -1.394531 3.914062 -1.078125 4.84375 -1.078125 C 5.582031 -1.078125 6.160156 -1.304688 6.578125 -1.765625 C 7.003906 -2.234375 7.21875 -2.921875 7.21875 -3.828125 L 8.5625 -3.828125 C 8.5625 -2.492188 8.226562 -1.488281 7.5625 -0.8125 C 6.894531 -0.144531 5.988281 0.1875 4.84375 0.1875 Z M 4.84375 0.1875 "/></g></g></g><g fill="#ffffff" fill-opacity="1"><g transform="translate(199.29104, 279.430791)"><g><path d="M 1.09375 -10.671875 L 7.671875 -10.671875 L 7.671875 -9.421875 L 2.453125 -9.421875 L 2.453125 -6.078125 L 6.984375 -6.078125 L 6.984375 -4.828125 L 2.453125 -4.828125 L 2.453125 -1.25 L 7.765625 -1.25 L 7.765625 0 L 1.09375 0 Z M 1.09375 -10.671875 "/></g></g></g></svg>